Coordinates
version=1
nRows=21
nColumns=12
inDegrees=yes

Units are S.I. units (second, meters, Newtons, ...)
Angles are in degrees

endheader
time	SC_y	SC_z	SC_x	AC_y	AC_z	AC_x	GH_y	GH_z	GH_yy	EL_x	PS_y
       0.0              -36.08          24.09          8.067          68.62         -9.523          5.091         -143.4          66.32          13.91          97.64           23.7
   0.04269              -36.08           24.1          8.066          68.62         -9.523          5.088         -143.4          66.31          13.88          97.63           23.7
   0.08539              -36.08           24.1          8.065          68.62         -9.522          5.085         -143.3           66.3          13.86          97.63           23.7
    0.1281              -36.08           24.1          8.064          68.62         -9.521          5.082         -143.3           66.3          13.83          97.62          23.69
    0.1708              -36.08           24.1          8.062          68.62          -9.52          5.079         -143.3          66.29           13.8          97.62          23.69
    0.2135              -36.08           24.1          8.061          68.62          -9.52          5.075         -143.2          66.28          13.77          97.61          23.69
    0.2562              -36.09           24.1          8.059          68.61         -9.519          5.072         -143.2          66.27          13.74           97.6          23.69
    0.2989              -36.09          24.11          8.057          68.61         -9.518          5.068         -143.1          66.27           13.7           97.6          23.69
    0.3416              -36.09          24.11          8.056          68.61         -9.517          5.063         -143.1          66.26          13.67          97.59          23.68
    0.3842              -36.09          24.11          8.054          68.61         -9.515          5.059         -143.0          66.25          13.63          97.58          23.68
    0.4269              -36.09          24.11          8.052          68.61         -9.514          5.054         -143.0          66.24          13.58          97.57          23.68
    0.4696               -36.1          24.12          8.049          68.61         -9.513          5.049         -142.9          66.23          13.54          97.56          23.67
    0.5123               -36.1          24.12          8.047           68.6         -9.511          5.043         -142.9          66.21          13.49          97.55          23.67
     0.555               -36.1          24.12          8.044           68.6          -9.51          5.037         -142.8           66.2          13.43          97.54          23.67
    0.5977               -36.1          24.12          8.041           68.6         -9.508           5.03         -142.7          66.19          13.38          97.53          23.66
    0.6404              -36.11          24.13          8.038           68.6         -9.506          5.023         -142.7          66.17          13.31          97.51          23.66
    0.6831              -36.11          24.13          8.035          68.59         -9.504          5.015         -142.6          66.16          13.24           97.5          23.66
    0.7258              -36.11          24.14          8.031          68.59         -9.502          5.006         -142.5          66.14          13.17          97.49          23.65
    0.7685              -36.12          24.14          8.027          68.59           -9.5          4.997         -142.4          66.12          13.09          97.47          23.65
    0.8112              -36.12          24.15          8.023          68.58         -9.497          4.986         -142.3           66.1           13.0          97.45          23.64
    0.8539              -36.13          24.15          8.018          68.58         -9.495          4.975         -142.2          66.07           12.9          97.43          23.63
